<?xml version="1.0" encoding="utf-8"?>


<!-- Generator: Adobe Illustrator 24.1.3, SVG Export Plug-In . SVG Version: 6.00 Build 0)  -->
<svg version="1.1" id="Capa_1" xmlns="http://www.w3.org/2000/svg" xmlns:xlink="http://www.w3.org/1999/xlink" x="0px" y="0px"
	 viewBox="0 0 314.7 314.7" style="enable-background:new 0 0 314.7 314.7;" xml:space="preserve">
	 <style type="text/css">
	.st0{fill:#f464a4;}
</style>
<path class="st0" d="M250.1,143.4l-78.8-78.8c-3.7-3.7-8.7-5.8-14-5.8c-5.3,0-10.2,2.1-14,5.8l-78.8,78.8c-7.7,7.7-7.6,20.2,0,27.9
	c3.5,3.5,8.1,5.5,13.1,5.8c0.2,0,0.5,0,0.7,0h1.1v55.9c0,12.6,10.2,22.8,22.8,22.8h30.8c4.2,0,7.7-3.4,7.7-7.7v-45.4
	c0-4.1,3.4-7.5,7.5-7.5h18.2c4.1,0,7.5,3.4,7.5,7.5v45.4c0,4.2,3.4,7.7,7.7,7.7h30.8c12.6,0,22.8-10.2,22.8-22.8v-55.9h0.9
	c5.3,0,10.2-2.1,14-5.8C257.8,163.6,257.8,151.1,250.1,143.4z M239.2,160.5c-0.8,0.8-2,1.3-3.2,1.3h-8.6c-4.2,0-7.7,3.4-7.7,7.7
	v63.6c0,4.1-3.4,7.5-7.5,7.5h-23.1v-37.8c0-12.6-10.2-22.8-22.8-22.8h-18.2c-12.6,0-22.8,10.2-22.8,22.8v37.8h-23.1
	c-4.1,0-7.5-3.4-7.5-7.5v-63.6c0-4.2-3.4-7.7-7.7-7.7h-8.4c-0.1,0-0.2,0-0.3,0c-1.2,0-2.3-0.5-3.1-1.3c-1.6-1.6-1.7-4-0.5-5.7l0.2,0
	l0.5-0.8l78.6-78.6c0.8-0.8,2-1.3,3.2-1.3c1.2,0,2.3,0.5,3.2,1.3l78.7,78.7C241,155.9,241,158.8,239.2,160.5z"/>
</svg>
