<?xml version="1.0" encoding="utf-8"?>
<!-- Generator: Adobe Illustrator 24.1.3, SVG Export Plug-In . SVG Version: 6.00 Build 0)  -->
<svg version="1.1" id="Capa_1" xmlns="http://www.w3.org/2000/svg" xmlns:xlink="http://www.w3.org/1999/xlink" x="0px" y="0px"
	 viewBox="0 0 314.7 314.7" style="enable-background:new 0 0 314.7 314.7;" xml:space="preserve">
<g>
	<style type="text/css">
	.st0{fill:#3054a4;}
</style>
	<path class="st0" d="M157.3,0C70.6,0,0,70.6,0,157.3s70.6,157.3,157.3,157.3s157.3-70.6,157.3-157.3S244.1,0,157.3,0z M157.3,296.7
		C80.5,296.7,18,234.1,18,157.3S80.5,18,157.3,18s139.3,62.5,139.3,139.3S234.2,296.7,157.3,296.7z"/>
	<g>
		<g>
			<path class="st0" d="M242,107.1c-6.3,2.6-13,4.4-20,5.2c7.2-4.1,12.7-10.6,15.3-18.3c-6.7,3.8-14.1,6.5-22,8c-6.4-6.5-15.5-10.5-25.4-10.5
				c-19.2,0-34.7,14.9-34.7,33.2c0,2.6,0.2,5.2,0.8,7.6c-28.9-1.3-54.4-14.6-71.6-34.7c-3,5-4.8,10.7-4.8,16.8
				c0,11.5,6.2,21.7,15.4,27.6c-5.6-0.1-11-1.6-15.7-4.1c0,0.1,0,0.2,0,0.4c0,16.1,12,29.5,27.8,32.6c-2.8,0.7-5.9,1.1-9.1,1.1
				c-2.2,0-4.5-0.1-6.6-0.6c4.5,13.1,17.3,22.8,32.4,23.1c-11.8,8.8-26.8,14.2-43,14.2c-2.8,0-5.6-0.1-8.3-0.5
				c15.4,9.5,33.6,14.9,53.3,14.9c63.9,0,98.8-50.6,98.8-94.4c0-1.5-0.1-2.9-0.1-4.3C231.5,119.7,237.3,113.9,242,107.1z"/>
		</g>
	</g>
</g>
</svg>
